<svg xmlns="http://www.w3.org/2000/svg" viewBox="0 0 64 64">
  <ellipse cx="32" cy="14" rx="22" ry="9" fill="#18a8c9"/>
  <path fill="#00758f" d="M10 14v15c0 5 10 9 22 9s22-4 22-9V14c0 5-10 9-22 9s-22-4-22-9Z"/>
  <path fill="#00637a" d="M10 29v15c0 5 10 9 22 9s22-4 22-9V29c0 5-10 9-22 9s-22-4-22-9Z"/>
  <path fill="none" stroke="#9ee8f5" stroke-linecap="round" stroke-width="2.5" d="M15 27c8 5 26 5 34 0M15 42c8 5 26 5 34 0"/>
  <circle cx="46" cy="44" r="7" fill="#f29111"/>
  <path fill="none" stroke="#fff" stroke-linecap="round" stroke-width="2" d="m43 44 2 2 4-5"/>
</svg>
